# xmcd CD database file
#
# Track frame offsets:
#	150
#	29300
#	56391
#	71826
#	94347
#	114075
#	139795
#	153654
#
# Disc length: 2426 seconds
#
# Revision: 0
# Processed by: cddbd v1.5.1PL0 Copyright (c) Steve Scherf et al.
# Submitted via: CDex 1.51
#
DISCID=68097808
DTITLE=Roberto Roena - Afuera y Contento
DYEAR=1985
DGENRE=Salsa
TTITLE0=Soledad
TTITLE1=Te Vas Con El Viento
TTITLE2=Ud Señora
TTITLE3=Sigue Mi Rumbo
TTITLE4=Appolo Zuky
TTITLE5=Debes Callar
TTITLE6=Y Sigo Llorando
TTITLE7=A Ver
EXTD=YEAR: 1985
EXTT0=
EXTT1=
EXTT2=
EXTT3=
EXTT4=
EXTT5=
EXTT6=
EXTT7=
PLAYORDER=
